<?xml version="1.0" encoding="UTF-8"?>
<svg viewBox="40 -15 335 335" xmlns="http://www.w3.org/2000/svg">
<g fill-rule="evenodd">
<path d="m159.33 32.029c-13.993 2.041-24.179 13.245-28.142 30.955-1.251 5.591-1.673 9.212-2.081 17.857-0.557 11.805-3.856 19.394-12.044 27.712-10.103 10.262-19.825 13.893-39.549 14.768-3.11 0.139-6.583 0.44-7.717 0.67-31.077 6.31-36.95 46.929-8.834 61.106 6.713 3.385 10.37 4.138 21.517 4.427 16.421 0.426 24.357 3.48 34.028 13.094 8.944 8.89 11.879 15.707 12.732 29.562 1.298 21.077 4.033 29.668 12.055 37.855 14.762 15.068 39.261 12.816 50.967-4.683 5.345-7.992 6.907-14.501 8.147-33.946 0.881-13.81 4.72-21.812 14.76-30.766 9.051-8.072 16.589-10.689 35.212-12.227 19.798-1.635 26.611-4.935 32.879-15.925 10.92-19.143 2.583-40.818-18.379-47.788-24.405-8.115-43.537 9.886-45.29 42.61-0.63 11.745-1.312 15.168-4.156 20.843-10.365 20.676-33.715 29.576-65.458 24.947-13.861-2.021-23.721-7.887-32.234-19.177-6.216-8.243-7.73-15.038-8.14-36.544-0.455-23.9 1.985-33.091 11.635-43.831 9.386-10.446 18.639-14.279 38.345-15.882 23.241-1.891 31.337-7.026 36.803-23.341 7.493-22.366-13.036-45.799-37.056-42.296" fill="#948474"/>
<path d="m245.46 35.444c-10.26 1.675-19.351 8.414-24.314 18.023-3.709 7.181-4.964 13.644-5.984 30.809-0.665 11.188-3.447 18.118-10.381 25.856-9.886 11.032-18.745 14.845-38.296 16.482-15.983 1.338-20.9 2.639-26.619 7.04-5.649 4.346-10.612 13.04-12.005 21.027-5.21 29.88 33.814 50.072 55.216 28.57 7.981-8.017 12.169-19.988 13.057-37.32 0.757-14.768 3.765-21.85 13.23-31.154 12.112-11.906 30.667-16.184 55.604-12.82 13.676 1.845 24.531 8.048 32.297 18.457 6.635 8.891 7.915 13.877 8.669 33.763 1.063 28.046-2.432 39.631-15.449 51.212-8.954 7.966-16.386 10.546-34.952 12.135-18.398 1.575-24.423 3.988-30.681 12.285-14.404 19.1-6.44 44.166 16.473 51.842 16.056 5.379 31.394-1.585 39.103-17.756 3.924-8.231 5.242-14.942 6.18-31.481 0.586-10.324 4.143-17.967 12.109-26.015 9.825-9.926 19.573-13.637 37.837-14.403 6.607-0.278 10.393-0.873 14.289-2.247 27.399-9.661 29.584-46.998 3.504-59.885-6.63-3.275-10.281-3.981-22.483-4.342-15.662-0.465-23.727-3.753-33.251-13.56-8.789-9.049-11.522-15.493-12.269-28.928-0.631-11.349-1.583-17.875-3.464-23.726-5.267-16.387-21.155-26.52-37.42-23.864" fill="#d48c3c"/>
<path d="m116.4 109.17-0.951 1.035 1.035-0.951c0.963-0.885 1.161-1.118 0.95-1.118-0.046 0-0.511 0.465-1.034 1.034m6.36 2.69c-0.67 0.683-1.157 1.241-1.081 1.241s0.686-0.558 1.356-1.241c0.671-0.683 1.157-1.241 1.081-1.241s-0.686 0.558-1.356 1.241m156.14 21.517c0.514 0.531 0.997 0.966 1.073 0.966s-0.283-0.435-0.798-0.966c-0.514-0.531-0.997-0.965-1.073-0.965s0.283 0.434 0.798 0.965m-156.14 66.483c0.824 0.835 1.56 1.517 1.636 1.517s-0.536-0.682-1.361-1.517c-0.824-0.834-1.56-1.517-1.636-1.517s0.537 0.683 1.361 1.517m83.847 0.069-0.951 1.035 1.035-0.951c0.963-0.885 1.161-1.118 0.95-1.118-0.046 0-0.511 0.465-1.034 1.034m6.211 2.897-1.369 1.448 1.449-1.369c1.345-1.272 1.574-1.528 1.368-1.528-0.043 0-0.695 0.652-1.448 1.449m-96.955-0.811c0 0.048 0.404 0.451 0.897 0.897l0.896 0.81-0.81-0.896c-0.755-0.836-0.983-1.024-0.983-0.811" fill="#a08878"/>
<path d="m202.47 112.48-0.951 1.034 1.035-0.95c0.963-0.885 1.161-1.119 0.95-1.119-0.046 0-0.511 0.466-1.034 1.035m6.36 2.689c-0.67 0.683-1.157 1.242-1.081 1.242s0.686-0.559 1.356-1.242c0.671-0.682 1.157-1.241 1.081-1.241s-0.686 0.559-1.356 1.241m83.847 88.069-0.951 1.035 1.035-0.951c0.962-0.885 1.161-1.118 0.95-1.118-0.046 0-0.511 0.465-1.034 1.034m6.211 2.897-1.369 1.448 1.449-1.369c0.796-0.753 1.448-1.404 1.448-1.448 0-0.206-0.256 0.023-1.528 1.369" fill="#d8883c"/>
</g>
</svg>
